<?xml version="1.0" encoding="UTF-8" standalone="no"?>
<!-- Created with Inkscape (http://www.inkscape.org/) -->

<svg
   xmlns:dc="http://purl.org/dc/elements/1.1/"
   xmlns:cc="http://creativecommons.org/ns#"
   xmlns:rdf="http://www.w3.org/1999/02/22-rdf-syntax-ns#"
   xmlns:svg="http://www.w3.org/2000/svg"
   xmlns="http://www.w3.org/2000/svg"
   xmlns:sodipodi="http://sodipodi.sourceforge.net/DTD/sodipodi-0.dtd"
   xmlns:inkscape="http://www.inkscape.org/namespaces/inkscape"
   width="89.282249"
   height="86.983292"
   id="svg3204"
   version="1.1"
   inkscape:version="0.47 r22583"
   sodipodi:docname="Metacritic_Logo.svg">
  <title
     id="title4811">Metacritic Logo</title>
  <defs
     id="defs3206">
    <inkscape:perspective
       sodipodi:type="inkscape:persp3d"
       inkscape:vp_x="0 : 47.5 : 1"
       inkscape:vp_y="0 : 1000 : 0"
       inkscape:vp_z="220 : 47.5 : 1"
       inkscape:persp3d-origin="110 : 31.666667 : 1"
       id="perspective101" />
    <pattern
       patternUnits="userSpaceOnUse"
       width="219.49327"
       height="91.337643"
       patternTransform="matrix(1.1162867,0,0,1.1106149,-141.83457,1069.7973)"
       id="pattern3087">
      <g
         transform="matrix(1.0181895,0,0,0.99592808,-1.0966169,-909.35486)"
         id="g5610">
        <path
           inkscape:connector-curvature="0"
           id="path3212"
           d="m 96.625318,957.08052 c 0,24.27968 -19.726106,43.96228 -44.059491,43.96228 -24.333386,0 -44.0594929,-19.6826 -44.0594929,-43.96228 0,-24.27973 19.7261069,-43.96232 44.0594929,-43.96232 24.333385,0 44.059491,19.68259 44.059491,43.96232 z"
           style="fill:#fc0;fill-opacity:1;fill-rule:evenodd" />
        <path
           inkscape:connector-curvature="0"
           id="path3214"
           d="m 92.100563,957.1214 c 0,21.91075 -17.700304,39.67286 -39.534736,39.67286 -21.834431,0 -39.534736,-17.76211 -39.534736,-39.67286 0,-21.91068 17.700305,-39.67283 39.534736,-39.67283 21.834432,0 39.534736,17.76215 39.534736,39.67283 z"
           style="fill:#001b36;fill-opacity:1;fill-rule:evenodd" />
        <g
           id="flowRoot3781"
           style="font-size:40px;font-style:normal;font-variant:normal;font-weight:normal;font-stretch:normal;text-align:center;line-height:125%;letter-spacing:0px;word-spacing:0px;writing-mode:lr-tb;text-anchor:middle;fill:white;fill-opacity:1;fill-rule:evenodd;stroke:none;display:inline;font-family:Coalition;-inkscape-font-specification:Coalition"
           transform="matrix(1.2590422,-1.3633687,1.3507404,1.2771714,-263.69356,1018.889)">
          <path
             inkscape:connector-curvature="0"
             id="path4506"
             style="font-weight:bold;fill:white;fill-rule:evenodd;font-family:Arial;-inkscape-font-specification:Arial Bold"
             d="m 126.73438,92.087002 5.05859,0 0,2.832031 c 1.80989,-2.200501 3.96483,-3.30076 6.46484,-3.300781 1.32811,2.1e-5 2.48045,0.273458 3.45703,0.820312 0.97655,0.546895 1.77733,1.373717 2.40235,2.480469 0.91144,-1.106752 1.89451,-1.933574 2.94922,-2.480469 1.05466,-0.546854 2.18096,-0.820291 3.3789,-0.820312 1.52341,2.1e-5 2.81247,0.309265 3.86719,0.927734 1.05466,0.618509 1.84242,1.526711 2.36328,2.724609 0.37757,0.885434 0.56637,2.317724 0.56641,4.296875 l 0,13.26172 -5.48828,0 0,-11.85547 c -3e-5,-2.057277 -0.18883,-3.385401 -0.56641,-3.984375 -0.50784,-0.781233 -1.28909,-1.171858 -2.34375,-1.171875 -0.76825,1.7e-5 -1.49091,0.234392 -2.16797,0.703125 -0.6771,0.468766 -1.16538,1.155614 -1.46484,2.060547 -0.2995,0.904961 -0.44924,2.333998 -0.44922,4.287108 l 0,9.96094 -5.48828,0 0,-11.36719 c -2e-5,-2.018214 -0.0977,-3.320296 -0.29297,-3.906248 -0.19533,-0.585922 -0.49806,-1.02212 -0.9082,-1.308594 -0.41017,-0.286442 -0.96681,-0.429671 -1.66993,-0.429688 -0.84636,1.7e-5 -1.60808,0.227882 -2.28515,0.683594 -0.6771,0.455745 -1.16212,1.113297 -1.45508,1.972656 -0.29298,0.859389 -0.43946,2.28517 -0.43945,4.27734 l 0,10.07813 -5.48828,0 z" />
        </g>
        <g
           transform="matrix(0.86691057,0,0,1,33.0877,918.69935)"
           style="font-size:10px;font-style:normal;font-variant:normal;font-weight:normal;font-stretch:normal;text-align:center;line-height:125%;letter-spacing:0px;word-spacing:0px;writing-mode:lr-tb;text-anchor:middle;fill:#ccc;fill-opacity:1;fill-rule:evenodd;stroke:none;display:inline;font-family:Coalition;-inkscape-font-specification:Coalition"
           id="flowRoot3791">
          <path
             d="m 92.234375,28.259801 2.023437,0 0,1.132812 c 0.723955,-0.8802 1.585933,-1.320304 2.585938,-1.320312 0.531244,8e-6 0.992181,0.109383 1.382812,0.328125 0.390618,0.218758 0.71093,0.549486 0.960938,0.992187 0.364575,-0.442701 0.757804,-0.773429 1.17969,-0.992187 0.42186,-0.218742 0.87238,-0.328117 1.35156,-0.328125 0.60936,8e-6 1.12499,0.123706 1.54688,0.371093 0.42186,0.247404 0.73696,0.610685 0.94531,1.089844 0.15103,0.354173 0.22655,0.92709 0.22656,1.71875 l 0,5.304688 -2.19531,0 0,-4.742188 c -10e-6,-0.822911 -0.0755,-1.35416 -0.22656,-1.59375 -0.20314,-0.312493 -0.51564,-0.468743 -0.9375,-0.46875 -0.30731,7e-6 -0.59637,0.09376 -0.86719,0.28125 -0.270845,0.187506 -0.466157,0.462246 -0.58594,0.824219 -0.1198,0.361984 -0.179696,0.933598 -0.179688,1.714844 l 0,3.984375 -2.195312,0 0,-4.546875 c -6e-6,-0.807287 -0.03907,-1.328119 -0.117188,-1.5625 -0.07813,-0.234369 -0.199224,-0.408848 -0.363281,-0.523438 -0.164068,-0.114576 -0.386724,-0.171868 -0.667969,-0.171875 -0.338546,7e-6 -0.643233,0.09115 -0.914062,0.273438 -0.270837,0.182298 -0.464847,0.445318 -0.582031,0.789062 -0.117191,0.343756 -0.175785,0.914067 -0.175782,1.710938 l 0,4.03125 -2.195312,0 z"
             style="font-size:16px;font-weight:bold;text-align:start;text-anchor:start;fill:#ccc;fill-rule:evenodd;font-family:Arial;-inkscape-font-specification:Arial Bold"
             id="path4433"
             inkscape:connector-curvature="0" />
          <path
             d="m 111.42188,33.916051 2.1875,0.367187 c -0.28126,0.802085 -0.72527,1.412761 -1.33204,1.832031 -0.60677,0.419271 -1.36589,0.628906 -2.27734,0.628907 -1.44271,-1e-6 -2.51042,-0.471354 -3.20312,-1.414063 -0.54688,-0.755206 -0.82032,-1.70833 -0.82032,-2.859375 0,-1.374994 0.35938,-2.451816 1.07813,-3.230469 0.71875,-0.778637 1.6276,-1.16796 2.72656,-1.167968 1.23437,8e-6 2.20833,0.40756 2.92188,1.222656 0.71353,0.81511 1.05467,2.063807 1.02343,3.746094 l -5.5,0 c 0.0156,0.651044 0.19271,1.157554 0.53125,1.519531 0.33854,0.361981 0.76042,0.54297 1.26563,0.542969 0.34374,10e-7 0.6328,-0.09375 0.86719,-0.28125 0.23436,-0.187498 0.41145,-0.489581 0.53125,-0.90625 z m 0.125,-2.21875 c -0.0156,-0.635412 -0.1797,-1.118484 -0.49219,-1.449219 -0.31251,-0.330723 -0.69272,-0.496087 -1.14063,-0.496094 -0.47917,7e-6 -0.875,0.174486 -1.1875,0.523438 -0.3125,0.348964 -0.46615,0.822922 -0.46093,1.421875 z"
             style="font-size:16px;font-weight:bold;text-align:start;text-anchor:start;fill:#ccc;fill-rule:evenodd;font-family:Arial;-inkscape-font-specification:Arial Bold"
             id="path4435"
             inkscape:connector-curvature="0" />
          <path
             d="m 119.32813,28.259801 0,1.75 -1.5,0 0,3.34375 c -1e-5,0.677085 0.0143,1.071616 0.043,1.183593 0.0286,0.111981 0.0937,0.204429 0.19532,0.277344 0.10155,0.07292 0.22525,0.109377 0.37109,0.109375 0.20312,2e-6 0.49739,-0.07031 0.88281,-0.210937 l 0.1875,1.703125 c -0.51042,0.21875 -1.08854,0.328124 -1.73437,0.328125 -0.39584,-1e-6 -0.75261,-0.06641 -1.07031,-0.199219 -0.31772,-0.132812 -0.55079,-0.304687 -0.69922,-0.515625 -0.14844,-0.210937 -0.25131,-0.496093 -0.3086,-0.855469 -0.0469,-0.255207 -0.0703,-0.770831 -0.0703,-1.546875 l 0,-3.617187 -1.00781,0 0,-1.75 1.00781,0 0,-1.648438 2.20313,-1.28125 0,2.929688 z"
             style="font-size:16px;font-weight:bold;text-align:start;text-anchor:start;fill:#ccc;fill-rule:evenodd;font-family:Arial;-inkscape-font-specification:Arial Bold"
             id="path4437"
             inkscape:connector-curvature="0" />
          <path
             d="m 122.50781,30.791051 -1.99218,-0.359375 c 0.22395,-0.802077 0.60937,-1.395826 1.15625,-1.78125 0.54687,-0.385409 1.35937,-0.578117 2.4375,-0.578125 0.97916,8e-6 1.70832,0.115893 2.1875,0.347656 0.47915,0.231779 0.81639,0.526049 1.01171,0.882812 0.19531,0.356778 0.29296,1.011725 0.29297,1.964844 l -0.0234,2.5625 c -1e-5,0.729169 0.0351,1.266929 0.10546,1.613281 0.0703,0.346355 0.20182,0.717449 0.39453,1.113282 l -2.17187,0 c -0.0573,-0.145834 -0.12761,-0.361979 -0.21094,-0.648438 -0.0365,-0.130207 -0.0625,-0.216145 -0.0781,-0.257812 -0.37501,0.364584 -0.77605,0.638021 -1.20313,0.820312 -0.42709,0.182292 -0.88281,0.273437 -1.36718,0.273438 -0.85417,-1e-6 -1.52735,-0.231771 -2.01954,-0.695313 -0.49218,-0.463541 -0.73828,-1.049477 -0.73828,-1.757812 0,-0.468748 0.11198,-0.886716 0.33594,-1.253907 0.22396,-0.367183 0.53776,-0.648433 0.94141,-0.84375 0.40364,-0.195308 0.98567,-0.36588 1.74609,-0.511718 1.02604,-0.192704 1.73697,-0.372391 2.13281,-0.539063 l 0,-0.21875 c 0,-0.421869 -0.10417,-0.72265 -0.3125,-0.902344 -0.20834,-0.17968 -0.60156,-0.269524 -1.17968,-0.269531 -0.39063,7e-6 -0.69532,0.07683 -0.91407,0.230469 -0.21875,0.153652 -0.39583,0.423183 -0.53125,0.808594 z m 2.9375,1.78125 c -0.28125,0.09375 -0.72656,0.205733 -1.33593,0.335937 -0.60938,0.130212 -1.00782,0.257816 -1.19532,0.382813 -0.28646,0.203128 -0.42969,0.46094 -0.42968,0.773437 -1e-5,0.307294 0.11458,0.572919 0.34375,0.796875 0.22916,0.22396 0.52082,0.335939 0.875,0.335938 0.39582,10e-7 0.77343,-0.130207 1.13281,-0.390625 0.26562,-0.197915 0.4401,-0.440102 0.52344,-0.726563 0.0573,-0.187497 0.0859,-0.544268 0.0859,-1.070312 z"
             style="font-size:16px;font-weight:bold;text-align:start;text-anchor:start;fill:#ccc;fill-rule:evenodd;font-family:Arial;-inkscape-font-specification:Arial Bold"
             id="path4439"
             inkscape:connector-curvature="0" />
          <path
             d="m 137.00781,30.712926 -2.16406,0.390625 c -0.0729,-0.432286 -0.23829,-0.757807 -0.49609,-0.976563 -0.25782,-0.218743 -0.59246,-0.328118 -1.00391,-0.328125 -0.54688,7e-6 -0.98308,0.188809 -1.30859,0.566406 -0.32553,0.37761 -0.48829,1.00912 -0.48829,1.894532 0,0.984378 0.16537,1.67969 0.4961,2.085937 0.33072,0.406252 0.77473,0.609377 1.33203,0.609375 0.41666,2e-6 0.75781,-0.118488 1.02344,-0.355469 0.26562,-0.236977 0.45312,-0.644528 0.5625,-1.222656 l 2.15625,0.367188 c -0.22397,0.989585 -0.65366,1.73698 -1.28907,2.242187 -0.63542,0.505209 -1.48698,0.757812 -2.55468,0.757813 -1.21355,-1e-6 -2.18099,-0.382813 -2.90235,-1.148438 -0.72135,-0.765623 -1.08203,-1.825518 -1.08203,-3.179687 0,-1.369787 0.36198,-2.436192 1.08594,-3.199219 0.72396,-0.763013 1.70312,-1.144523 2.9375,-1.144531 1.01041,8e-6 1.8138,0.217456 2.41016,0.652343 0.59634,0.434904 1.02473,1.097663 1.28515,1.988282 z"
             style="font-size:16px;font-weight:bold;text-align:start;text-anchor:start;fill:#ccc;fill-rule:evenodd;font-family:Arial;-inkscape-font-specification:Arial Bold"
             id="path4441"
             inkscape:connector-curvature="0" />
          <path
             d="m 140.78125,36.556676 -2.19531,0 0,-8.296875 2.03906,0 0,1.179687 c 0.34895,-0.557284 0.66276,-0.924471 0.94141,-1.101562 0.27864,-0.177075 0.59504,-0.265617 0.94921,-0.265625 0.5,8e-6 0.98177,0.138029 1.44532,0.414062 l -0.67969,1.914063 c -0.3698,-0.239577 -0.71355,-0.359369 -1.03125,-0.359375 -0.3073,6e-6 -0.56771,0.08464 -0.78125,0.253906 -0.21355,0.169277 -0.38151,0.475266 -0.50391,0.917969 -0.1224,0.442713 -0.18359,1.369795 -0.18359,2.78125 z"
             style="font-size:16px;font-weight:bold;text-align:start;text-anchor:start;fill:#ccc;fill-rule:evenodd;font-family:Arial;-inkscape-font-specification:Arial Bold"
             id="path4443"
             inkscape:connector-curvature="0" />
          <path
             d="m 144.89844,27.134801 0,-2.03125 2.19531,0 0,2.03125 z m 0,9.421875 0,-8.296875 2.19531,0 0,8.296875 z"
             style="font-size:16px;font-weight:bold;text-align:start;text-anchor:start;fill:#ccc;fill-rule:evenodd;font-family:Arial;-inkscape-font-specification:Arial Bold"
             id="path4445"
             inkscape:connector-curvature="0" />
          <path
             d="m 153.14062,28.259801 0,1.75 -1.5,0 0,3.34375 c 0,0.677085 0.0143,1.071616 0.043,1.183593 0.0286,0.111981 0.0937,0.204429 0.19532,0.277344 0.10155,0.07292 0.22525,0.109377 0.37109,0.109375 0.20312,2e-6 0.49739,-0.07031 0.88281,-0.210937 l 0.1875,1.703125 c -0.51042,0.21875 -1.08854,0.328124 -1.73437,0.328125 -0.39584,-1e-6 -0.75261,-0.06641 -1.07032,-0.199219 -0.31771,-0.132812 -0.55078,-0.304687 -0.69921,-0.515625 -0.14844,-0.210937 -0.25131,-0.496093 -0.3086,-0.855469 -0.0469,-0.255207 -0.0703,-0.770831 -0.0703,-1.546875 l 0,-3.617187 -1.00781,0 0,-1.75 1.00781,0 0,-1.648438 2.20312,-1.28125 0,2.929688 z"
             style="font-size:16px;font-weight:bold;text-align:start;text-anchor:start;fill:#ccc;fill-rule:evenodd;font-family:Arial;-inkscape-font-specification:Arial Bold"
             id="path4447"
             inkscape:connector-curvature="0" />
          <path
             d="m 154.67969,27.134801 0,-2.03125 2.19531,0 0,2.03125 z m 0,9.421875 0,-8.296875 2.19531,0 0,8.296875 z"
             style="font-size:16px;font-weight:bold;text-align:start;text-anchor:start;fill:#ccc;fill-rule:evenodd;font-family:Arial;-inkscape-font-specification:Arial Bold"
             id="path4449"
             inkscape:connector-curvature="0" />
          <path
             d="m 166.35156,30.712926 -2.16406,0.390625 c -0.0729,-0.432286 -0.23829,-0.757807 -0.49609,-0.976563 -0.25782,-0.218743 -0.59246,-0.328118 -1.00391,-0.328125 -0.54688,7e-6 -0.98308,0.188809 -1.30859,0.566406 -0.32553,0.37761 -0.48829,1.00912 -0.48829,1.894532 0,0.984378 0.16537,1.67969 0.4961,2.085937 0.33072,0.406252 0.77473,0.609377 1.33203,0.609375 0.41666,2e-6 0.75781,-0.118488 1.02344,-0.355469 0.26562,-0.236977 0.45312,-0.644528 0.5625,-1.222656 l 2.15625,0.367188 c -0.22397,0.989585 -0.65366,1.73698 -1.28907,2.242187 -0.63542,0.505209 -1.48698,0.757812 -2.55468,0.757813 -1.21355,-1e-6 -2.18099,-0.382813 -2.90235,-1.148438 -0.72135,-0.765623 -1.08203,-1.825518 -1.08203,-3.179687 0,-1.369787 0.36198,-2.436192 1.08594,-3.199219 0.72396,-0.763013 1.70312,-1.144523 2.9375,-1.144531 1.01041,8e-6 1.8138,0.217456 2.41016,0.652343 0.59634,0.434904 1.02473,1.097663 1.28515,1.988282 z"
             style="font-size:16px;font-weight:bold;text-align:start;text-anchor:start;fill:#ccc;fill-rule:evenodd;font-family:Arial;-inkscape-font-specification:Arial Bold"
             id="path4451"
             inkscape:connector-curvature="0" />
          <path
             d="m 168.02344,36.556676 0,-2.195313 2.19531,0 0,2.195313 z"
             style="font-size:16px;font-weight:bold;text-align:start;text-anchor:start;fill:#ccc;fill-rule:evenodd;font-family:Arial;-inkscape-font-specification:Arial Bold"
             id="path4453"
             inkscape:connector-curvature="0" />
          <path
             d="m 179.69531,30.712926 -2.16406,0.390625 c -0.0729,-0.432286 -0.23829,-0.757807 -0.49609,-0.976563 -0.25782,-0.218743 -0.59246,-0.328118 -1.00391,-0.328125 -0.54688,7e-6 -0.98308,0.188809 -1.30859,0.566406 -0.32553,0.37761 -0.48829,1.00912 -0.48829,1.894532 0,0.984378 0.16537,1.67969 0.4961,2.085937 0.33072,0.406252 0.77473,0.609377 1.33203,0.609375 0.41666,2e-6 0.75781,-0.118488 1.02344,-0.355469 0.26562,-0.236977 0.45312,-0.644528 0.5625,-1.222656 l 2.15625,0.367188 c -0.22397,0.989585 -0.65366,1.73698 -1.28907,2.242187 -0.63542,0.505209 -1.48698,0.757812 -2.55468,0.757813 -1.21355,-1e-6 -2.18099,-0.382813 -2.90235,-1.148438 -0.72135,-0.765623 -1.08203,-1.825518 -1.08203,-3.179687 0,-1.369787 0.36198,-2.436192 1.08594,-3.199219 0.72396,-0.763013 1.70312,-1.144523 2.9375,-1.144531 1.01041,8e-6 1.8138,0.217456 2.41016,0.652343 0.59634,0.434904 1.02473,1.097663 1.28515,1.988282 z"
             style="font-size:16px;font-weight:bold;text-align:start;text-anchor:start;fill:#ccc;fill-rule:evenodd;font-family:Arial;-inkscape-font-specification:Arial Bold"
             id="path4455"
             inkscape:connector-curvature="0" />
          <path
             d="m 180.85937,32.291051 c 0,-0.729162 0.17969,-1.434891 0.53907,-2.117188 0.35937,-0.682284 0.86849,-1.203117 1.52734,-1.5625 0.65885,-0.359367 1.39453,-0.539054 2.20703,-0.539062 1.2552,8e-6 2.28385,0.40756 3.08594,1.222656 0.80207,0.81511 1.20312,1.845057 1.20312,3.089844 0,1.255211 -0.40495,2.295574 -1.21484,3.121093 -0.8099,0.825521 -1.82943,1.238281 -3.05859,1.238282 -0.76042,-1e-6 -1.48568,-0.171875 -2.17578,-0.515625 -0.69011,-0.34375 -1.21485,-0.847655 -1.57422,-1.511719 -0.35938,-0.66406 -0.53907,-1.472653 -0.53907,-2.425781 z m 2.25,0.117187 c 0,0.82292 0.19531,1.453128 0.58594,1.890625 0.39062,0.437502 0.87239,0.656252 1.44531,0.65625 0.57292,2e-6 1.05338,-0.218748 1.44141,-0.65625 0.38802,-0.437497 0.58203,-1.072913 0.58203,-1.90625 0,-0.812495 -0.19401,-1.437494 -0.58203,-1.875 -0.38803,-0.437493 -0.86849,-0.656243 -1.44141,-0.65625 -0.57292,7e-6 -1.05469,0.218757 -1.44531,0.65625 -0.39063,0.437506 -0.58594,1.067713 -0.58594,1.890625 z"
             style="font-size:16px;font-weight:bold;text-align:start;text-anchor:start;fill:#ccc;fill-rule:evenodd;font-family:Arial;-inkscape-font-specification:Arial Bold"
             id="path4457"
             inkscape:connector-curvature="0" />
          <path
             d="m 190.98437,28.259801 2.02344,0 0,1.132812 c 0.72396,-0.8802 1.58594,-1.320304 2.58594,-1.320312 0.53124,8e-6 0.99218,0.109383 1.38281,0.328125 0.39062,0.218758 0.71093,0.549486 0.96094,0.992187 0.36458,-0.442701 0.7578,-0.773429 1.17969,-0.992187 0.42186,-0.218742 0.87238,-0.328117 1.35156,-0.328125 0.60936,8e-6 1.12499,0.123706 1.54687,0.371093 0.42187,0.247404 0.73697,0.610685 0.94532,1.089844 0.15103,0.354173 0.22655,0.92709 0.22656,1.71875 l 0,5.304688 -2.19531,0 0,-4.742188 c -1e-5,-0.822911 -0.0755,-1.35416 -0.22657,-1.59375 -0.20313,-0.312493 -0.51563,-0.468743 -0.9375,-0.46875 -0.3073,7e-6 -0.59636,0.09376 -0.86718,0.28125 -0.27084,0.187506 -0.46616,0.462246 -0.58594,0.824219 -0.1198,0.361984 -0.1797,0.933598 -0.17969,1.714844 l 0,3.984375 -2.19531,0 0,-4.546875 c -1e-5,-0.807287 -0.0391,-1.328119 -0.11719,-1.5625 -0.0781,-0.234369 -0.19922,-0.408848 -0.36328,-0.523438 -0.16407,-0.114576 -0.38672,-0.171868 -0.66797,-0.171875 -0.33854,7e-6 -0.64323,0.09115 -0.91406,0.273438 -0.27084,0.182298 -0.46485,0.445318 -0.58203,0.789062 -0.11719,0.343756 -0.17579,0.914067 -0.17578,1.710938 l 0,4.03125 -2.19532,0 z"
             style="font-size:16px;font-weight:bold;text-align:start;text-anchor:start;fill:#ccc;fill-rule:evenodd;font-family:Arial;-inkscape-font-specification:Arial Bold"
             id="path4459"
             inkscape:connector-curvature="0" />
          <path
             d="m 206.43652,25.773863 c 0.38477,4e-6 0.75391,0.0962 1.10743,0.288574 0.35351,0.192387 0.63134,0.468266 0.83349,0.827637 0.20215,0.359378 0.30322,0.735354 0.30322,1.12793 0,0.390626 -0.0991,0.763185 -0.29736,1.117675 -0.19825,0.354493 -0.47461,0.63086 -0.8291,0.829102 -0.3545,0.198242 -0.72705,0.297363 -1.11768,0.297363 -0.39062,0 -0.76318,-0.09912 -1.11767,-0.297363 -0.3545,-0.198242 -0.63086,-0.474609 -0.8291,-0.829102 -0.19825,-0.35449 -0.29737,-0.727049 -0.29737,-1.117675 0,-0.392576 0.10108,-0.768552 0.30323,-1.12793 0.20214,-0.359371 0.47998,-0.63525 0.83349,-0.827637 0.35352,-0.192378 0.72266,-0.28857 1.10742,-0.288574 z m 0.003,0.439453 c -0.30859,4e-6 -0.60449,0.07715 -0.88769,0.231445 -0.28321,0.154301 -0.50635,0.37598 -0.66944,0.66504 -0.16308,0.289065 -0.24463,0.591799 -0.24462,0.908203 -1e-5,0.314455 0.0796,0.614259 0.23876,0.899414 0.15918,0.285157 0.38135,0.507813 0.66651,0.667968 0.28515,0.160157 0.58398,0.240235 0.89648,0.240235 0.31445,0 0.61377,-0.08008 0.89795,-0.240235 0.28418,-0.160155 0.50635,-0.382811 0.66651,-0.667968 0.16015,-0.285155 0.24023,-0.584959 0.24023,-0.899414 0,-0.316404 -0.0815,-0.619138 -0.24463,-0.908203 -0.16309,-0.28906 -0.38672,-0.510739 -0.6709,-0.66504 -0.28418,-0.154293 -0.58057,-0.231441 -0.88916,-0.231445 z m -1.0166,3.00586 0,-2.381836 0.4834,0 c 0.45312,3e-6 0.70703,0.002 0.76172,0.0059 0.16015,0.01368 0.28466,0.04541 0.37353,0.09522 0.0889,0.04981 0.16309,0.125979 0.22266,0.228515 0.0596,0.102542 0.0893,0.216312 0.0894,0.341309 -1e-5,0.171878 -0.0562,0.31885 -0.16846,0.440918 -0.11231,0.122072 -0.27002,0.197756 -0.47315,0.227051 0.0723,0.02734 0.12793,0.05713 0.167,0.08935 0.0391,0.03223 0.0928,0.09326 0.16113,0.183106 0.0176,0.02344 0.0762,0.120118 0.17578,0.290039 l 0.28125,0.480469 -0.59766,0 -0.19921,-0.386719 c -0.13477,-0.259764 -0.2461,-0.423338 -0.33399,-0.490723 -0.0879,-0.06738 -0.19922,-0.101072 -0.33398,-0.101074 l -0.12598,0 0,0.978516 z m 0.4834,-1.353516 0.19629,0 c 0.27929,2e-6 0.45263,-0.01074 0.52002,-0.03223 0.0674,-0.02148 0.1206,-0.05908 0.15967,-0.112793 0.0391,-0.05371 0.0586,-0.114743 0.0586,-0.183105 0,-0.0664 -0.0191,-0.125486 -0.0571,-0.177246 -0.0381,-0.05175 -0.0923,-0.08886 -0.1626,-0.111328 -0.0703,-0.02246 -0.24316,-0.03369 -0.51855,-0.03369 l -0.19629,0 z"
             style="font-size:6px;baseline-shift:super;fill:#ccc;fill-rule:evenodd"
             id="path4461"
             inkscape:connector-curvature="0" />
        </g>
        <g
           transform="matrix(0.94252537,0,0,1,13.685734,896.17534)"
           style="font-size:10px;font-style:normal;font-variant:normal;font-weight:bold;font-stretch:normal;text-align:center;line-height:125%;letter-spacing:0px;word-spacing:0px;writing-mode:lr-tb;text-anchor:middle;fill:#ccc;fill-opacity:1;fill-rule:evenodd;stroke:none;display:inline;font-family:Arial;-inkscape-font-specification:Arial Bold"
           id="flowRoot3803">
          <path
             d="m 107.04255,69.122088 -1.36719,-5.726563 1.1836,0 0.86328,3.933594 1.04687,-3.933594 1.375,0 1.00391,4 0.87891,-4 1.16406,0 -1.39063,5.726563 -1.22656,0 -1.14062,-4.28125 -1.13672,4.28125 z"
             style="font-size:8px;fill:#ccc;fill-rule:evenodd"
             id="path4464"
             inkscape:connector-curvature="0" />
          <path
             d="m 116.17146,67.801775 1.09375,0.183594 c -0.14063,0.401042 -0.36264,0.706381 -0.66602,0.916016 -0.30339,0.209635 -0.68294,0.314453 -1.13867,0.314453 -0.72136,0 -1.25521,-0.235677 -1.60156,-0.707031 -0.27344,-0.377604 -0.41016,-0.854166 -0.41016,-1.429688 0,-0.687497 0.17969,-1.225908 0.53906,-1.615234 0.35938,-0.389319 0.8138,-0.58398 1.36328,-0.583985 0.61719,5e-6 1.10417,0.20378 1.46094,0.611328 0.35677,0.407556 0.52734,1.031904 0.51172,1.873047 l -2.75,0 c 0.008,0.325523 0.0964,0.578778 0.26563,0.759766 0.16927,0.18099 0.3802,0.271485 0.63281,0.271484 0.17187,10e-7 0.3164,-0.04687 0.43359,-0.140625 0.11719,-0.09375 0.20573,-0.24479 0.26563,-0.453125 z m 0.0625,-1.109375 c -0.008,-0.317705 -0.0898,-0.559241 -0.2461,-0.724609 -0.15625,-0.165361 -0.34635,-0.248044 -0.57031,-0.248047 -0.23958,3e-6 -0.4375,0.08724 -0.59375,0.261719 -0.15625,0.174482 -0.23307,0.411461 -0.23047,0.710937 z"
             style="font-size:8px;fill:#ccc;fill-rule:evenodd"
             id="path4466"
             inkscape:connector-curvature="0" />
          <path
             d="m 120.44489,63.395525 2.11329,0 c 0.47656,6e-6 0.83984,0.03646 1.08984,0.109375 0.33593,0.09896 0.62369,0.274745 0.86328,0.527344 0.23958,0.252609 0.42187,0.561854 0.54688,0.927734 0.12499,0.36589 0.18749,0.817061 0.1875,1.353516 -10e-6,0.471357 -0.0586,0.877606 -0.17579,1.21875 -0.14323,0.416668 -0.34766,0.753907 -0.61328,1.011719 -0.20052,0.195313 -0.47135,0.347656 -0.8125,0.457031 -0.25521,0.08073 -0.59635,0.121094 -1.02343,0.121094 l -2.17579,0 z m 1.15625,0.96875 0,3.792969 0.86329,0 c 0.32291,10e-7 0.55598,-0.01823 0.69921,-0.05469 0.1875,-0.04687 0.3431,-0.126301 0.4668,-0.238282 0.1237,-0.111977 0.22461,-0.296222 0.30274,-0.552734 0.0781,-0.256508 0.11718,-0.606117 0.11718,-1.048828 0,-0.442705 -0.0391,-0.782549 -0.11718,-1.019531 -0.0781,-0.236975 -0.18751,-0.421871 -0.32813,-0.554688 -0.14063,-0.132808 -0.31901,-0.222652 -0.53516,-0.269531 -0.16146,-0.03645 -0.47786,-0.05468 -0.94921,-0.05469 z"
             style="font-size:8px;fill:#ccc;fill-rule:evenodd"
             id="path4468"
             inkscape:connector-curvature="0" />
          <path
             d="m 128.62458,67.801775 1.09375,0.183594 c -0.14063,0.401042 -0.36263,0.706381 -0.66601,0.916016 -0.30339,0.209635 -0.68295,0.314453 -1.13868,0.314453 -0.72135,0 -1.2552,-0.235677 -1.60156,-0.707031 -0.27344,-0.377604 -0.41015,-0.854166 -0.41015,-1.429688 0,-0.687497 0.17968,-1.225908 0.53906,-1.615234 0.35937,-0.389319 0.8138,-0.58398 1.36328,-0.583985 0.61718,5e-6 1.10416,0.20378 1.46094,0.611328 0.35676,0.407556 0.52734,1.031904 0.51172,1.873047 l -2.75,0 c 0.008,0.325523 0.0964,0.578778 0.26562,0.759766 0.16927,0.18099 0.38021,0.271485 0.63281,0.271484 0.17188,10e-7 0.31641,-0.04687 0.4336,-0.140625 0.11718,-0.09375 0.20572,-0.24479 0.26562,-0.453125 z m 0.0625,-1.109375 c -0.008,-0.317705 -0.0898,-0.559241 -0.24609,-0.724609 -0.15625,-0.165361 -0.34636,-0.248044 -0.57031,-0.248047 -0.23959,3e-6 -0.43751,0.08724 -0.59375,0.261719 -0.15626,0.174482 -0.23308,0.411461 -0.23047,0.710937 z"
             style="font-size:8px;fill:#ccc;fill-rule:evenodd"
             id="path4470"
             inkscape:connector-curvature="0" />
          <path
             d="m 131.49568,66.239275 -0.9961,-0.179687 c 0.11198,-0.401038 0.30469,-0.697913 0.57813,-0.890625 0.27343,-0.192704 0.67968,-0.289058 1.21875,-0.289063 0.48958,5e-6 0.85416,0.05795 1.09375,0.173828 0.23958,0.11589 0.4082,0.263025 0.50586,0.441407 0.0976,0.178389 0.14648,0.505862 0.14648,0.982422 l -0.0117,1.28125 c 0,0.364584 0.0176,0.633464 0.0527,0.80664 0.0351,0.173178 0.1009,0.358724 0.19726,0.556641 l -1.08594,0 c -0.0286,-0.07292 -0.0638,-0.18099 -0.10546,-0.324219 -0.0182,-0.0651 -0.0313,-0.108072 -0.0391,-0.128906 -0.1875,0.182292 -0.38802,0.31901 -0.60156,0.410156 -0.21354,0.09115 -0.44141,0.136719 -0.68359,0.136719 -0.42709,0 -0.76368,-0.115886 -1.00977,-0.347656 -0.24609,-0.231771 -0.36914,-0.524739 -0.36914,-0.878907 0,-0.234373 0.056,-0.443357 0.16797,-0.626953 0.11198,-0.183592 0.26888,-0.324216 0.4707,-0.421875 0.20182,-0.09765 0.49284,-0.18294 0.87305,-0.255859 0.51302,-0.09635 0.86849,-0.186195 1.06641,-0.269531 l 0,-0.109375 c -1e-5,-0.210935 -0.0521,-0.361325 -0.15625,-0.451172 -0.10417,-0.08984 -0.30079,-0.134763 -0.58985,-0.134766 -0.19531,3e-6 -0.34766,0.03842 -0.45703,0.115234 -0.10938,0.07683 -0.19792,0.211592 -0.26562,0.404297 z m 1.46875,0.890625 c -0.14063,0.04688 -0.36329,0.102867 -0.66797,0.167969 -0.30469,0.06511 -0.50391,0.128908 -0.59766,0.191406 -0.14323,0.101564 -0.21484,0.23047 -0.21484,0.386719 0,0.153647 0.0573,0.286459 0.17187,0.398438 0.11458,0.111979 0.26042,0.167969 0.4375,0.167968 0.19792,10e-7 0.38672,-0.0651 0.56641,-0.195312 0.13281,-0.09896 0.22005,-0.220051 0.26172,-0.363281 0.0286,-0.09375 0.043,-0.272134 0.043,-0.535157 z"
             style="font-size:8px;fill:#ccc;fill-rule:evenodd"
             id="path4472"
             inkscape:connector-curvature="0" />
          <path
             d="m 135.12849,69.122088 0,-5.726563 1.09765,0 0,5.726563 z"
             style="font-size:8px;fill:#ccc;fill-rule:evenodd"
             id="path4474"
             inkscape:connector-curvature="0" />
          <path
             d="m 140.3863,69.122088 -1.36719,-5.726563 1.1836,0 0.86328,3.933594 1.04687,-3.933594 1.375,0 1.00391,4 0.87891,-4 1.16406,0 -1.39063,5.726563 -1.22656,0 -1.14062,-4.28125 -1.13672,4.28125 z"
             style="font-size:8px;fill:#ccc;fill-rule:evenodd"
             id="path4476"
             inkscape:connector-curvature="0" />
          <path
             d="m 147.11286,64.41115 0,-1.015625 1.09766,0 0,1.015625 z m 0,4.710938 0,-4.148438 1.09766,0 0,4.148438 z"
             style="font-size:8px;fill:#ccc;fill-rule:evenodd"
             id="path4478"
             inkscape:connector-curvature="0" />
          <path
             d="m 151.23396,64.97365 0,0.875 -0.75,0 0,1.671875 c 0,0.338543 0.007,0.535809 0.0215,0.591797 0.0143,0.05599 0.0469,0.102215 0.0977,0.138672 0.0508,0.03646 0.11263,0.05469 0.18554,0.05469 0.10157,0 0.2487,-0.03516 0.44141,-0.105469 l 0.0937,0.851562 c -0.25521,0.109375 -0.54427,0.164063 -0.86719,0.164063 -0.19791,0 -0.3763,-0.0332 -0.53515,-0.09961 -0.15886,-0.06641 -0.27539,-0.152343 -0.34961,-0.257812 -0.0742,-0.105468 -0.12565,-0.248046 -0.1543,-0.427734 -0.0234,-0.127604 -0.0352,-0.385416 -0.0352,-0.773438 l 0,-1.808594 -0.5039,0 0,-0.875 0.5039,0 0,-0.824218 1.10157,-0.640625 0,1.464843 z"
             style="font-size:8px;fill:#ccc;fill-rule:evenodd"
             id="path4480"
             inkscape:connector-curvature="0" />
          <path
             d="m 153.09724,63.395525 0,2.105469 c 0.35416,-0.414058 0.77734,-0.621089 1.26953,-0.621094 0.2526,5e-6 0.48047,0.04688 0.68359,0.140625 0.20312,0.09375 0.35612,0.213546 0.45899,0.359375 0.10286,0.145837 0.17317,0.307295 0.21094,0.484375 0.0377,0.177087 0.0566,0.451826 0.0566,0.824219 l 0,2.433594 -1.09766,0 0,-2.191406 c 0,-0.434894 -0.0208,-0.710935 -0.0625,-0.828125 -0.0417,-0.117185 -0.11524,-0.210284 -0.2207,-0.279297 -0.10547,-0.06901 -0.23764,-0.103513 -0.39649,-0.103516 -0.18229,3e-6 -0.34505,0.04427 -0.48828,0.132813 -0.14323,0.08854 -0.24805,0.222008 -0.31445,0.40039 -0.0664,0.178388 -0.0996,0.44206 -0.0996,0.791016 l 0,2.078125 -1.09766,0 0,-5.726563 z"
             style="font-size:8px;fill:#ccc;fill-rule:evenodd"
             id="path4482"
             inkscape:connector-curvature="0" />
          <path
             d="m 162.78474,67.016619 1.12109,0.355469 c -0.17188,0.625001 -0.45768,1.089193 -0.85742,1.392578 -0.39974,0.303385 -0.9069,0.455078 -1.52148,0.455078 -0.76042,0 -1.38542,-0.259765 -1.875,-0.779297 -0.48959,-0.51953 -0.73438,-1.229816 -0.73438,-2.130859 0,-0.953121 0.24609,-1.693355 0.73828,-2.220703 0.49219,-0.527339 1.13932,-0.79101 1.94141,-0.791016 0.70052,6e-6 1.26953,0.207037 1.70703,0.621094 0.26041,0.244796 0.45572,0.596359 0.58594,1.054687 l -1.14453,0.273438 c -0.0677,-0.296871 -0.20899,-0.531246 -0.42383,-0.703125 -0.21485,-0.17187 -0.47592,-0.257808 -0.78321,-0.257813 -0.42448,5e-6 -0.76888,0.152349 -1.0332,0.457032 -0.26432,0.304691 -0.39648,0.79818 -0.39648,1.480468 0,0.723961 0.1302,1.239585 0.39062,1.546875 0.26042,0.307293 0.59896,0.460939 1.01563,0.460938 0.30729,10e-7 0.57161,-0.09766 0.79297,-0.292969 0.22135,-0.195311 0.3802,-0.502602 0.47656,-0.921875 z"
             style="font-size:8px;fill:#ccc;fill-rule:evenodd"
             id="path4484"
             inkscape:connector-curvature="0" />
          <path
             d="m 165.94489,69.122088 -1.09765,0 0,-4.148438 1.01953,0 0,0.589844 c 0.17448,-0.278642 0.33138,-0.462235 0.4707,-0.550781 0.13932,-0.08854 0.29753,-0.132808 0.47461,-0.132813 0.25,5e-6 0.49088,0.06901 0.72266,0.207032 l -0.33985,0.957031 c -0.18489,-0.119789 -0.35677,-0.179684 -0.51562,-0.179688 -0.15365,4e-6 -0.28386,0.04232 -0.39063,0.126953 -0.10677,0.08464 -0.19075,0.237634 -0.25195,0.458985 -0.0612,0.221356 -0.0918,0.684898 -0.0918,1.390625 z"
             style="font-size:8px;fill:#ccc;fill-rule:evenodd"
             id="path4486"
             inkscape:connector-curvature="0" />
          <path
             d="m 168.00349,64.41115 0,-1.015625 1.09765,0 0,1.015625 z m 0,4.710938 0,-4.148438 1.09765,0 0,4.148438 z"
             style="font-size:8px;fill:#ccc;fill-rule:evenodd"
             id="path4488"
             inkscape:connector-curvature="0" />
          <path
             d="m 172.12458,64.97365 0,0.875 -0.75,0 0,1.671875 c 0,0.338543 0.007,0.535809 0.0215,0.591797 0.0143,0.05599 0.0469,0.102215 0.0976,0.138672 0.0508,0.03646 0.11263,0.05469 0.18555,0.05469 0.10156,0 0.2487,-0.03516 0.44141,-0.105469 l 0.0937,0.851562 c -0.25521,0.109375 -0.54428,0.164063 -0.86719,0.164063 -0.19792,0 -0.3763,-0.0332 -0.53516,-0.09961 -0.15885,-0.06641 -0.27539,-0.152343 -0.34961,-0.257812 -0.0742,-0.105468 -0.12565,-0.248046 -0.15429,-0.427734 -0.0234,-0.127604 -0.0352,-0.385416 -0.0352,-0.773438 l 0,-1.808594 -0.50391,0 0,-0.875 0.50391,0 0,-0.824218 1.10156,-0.640625 0,1.464843 z"
             style="font-size:8px;fill:#ccc;fill-rule:evenodd"
             id="path4490"
             inkscape:connector-curvature="0" />
          <path
             d="m 172.89411,64.41115 0,-1.015625 1.09766,0 0,1.015625 z m 0,4.710938 0,-4.148438 1.09766,0 0,4.148438 z"
             style="font-size:8px;fill:#ccc;fill-rule:evenodd"
             id="path4492"
             inkscape:connector-curvature="0" />
          <path
             d="m 178.73005,66.200213 -1.08203,0.195312 c -0.0365,-0.216143 -0.11914,-0.378903 -0.24805,-0.488281 -0.12891,-0.109372 -0.29622,-0.164059 -0.50195,-0.164062 -0.27344,3e-6 -0.49154,0.0944 -0.6543,0.283203 -0.16276,0.188805 -0.24414,0.50456 -0.24414,0.947265 0,0.492189 0.0827,0.839845 0.24805,1.042969 0.16536,0.203126 0.38737,0.304688 0.66601,0.304688 0.20834,0 0.37891,-0.05924 0.51172,-0.177735 0.13281,-0.118488 0.22656,-0.322264 0.28125,-0.611328 l 1.07813,0.183594 c -0.11198,0.494792 -0.32683,0.86849 -0.64453,1.121094 -0.31771,0.252604 -0.7435,0.378906 -1.27735,0.378906 -0.60677,0 -1.09049,-0.191406 -1.45117,-0.574219 -0.36068,-0.382812 -0.54101,-0.912759 -0.54101,-1.589844 0,-0.684893 0.18099,-1.218095 0.54296,-1.599609 0.36198,-0.381506 0.85157,-0.572261 1.46875,-0.572266 0.50521,5e-6 0.9069,0.108728 1.20508,0.326172 0.29818,0.217452 0.51237,0.548832 0.64258,0.994141 z"
             style="font-size:8px;fill:#ccc;fill-rule:evenodd"
             id="path4494"
             inkscape:connector-curvature="0" />
          <path
             d="m 179.56599,64.41115 0,-1.015625 1.09765,0 0,1.015625 z m 0,4.710938 0,-4.148438 1.09765,0 0,4.148438 z"
             style="font-size:8px;fill:#ccc;fill-rule:evenodd"
             id="path4496"
             inkscape:connector-curvature="0" />
          <path
             d="m 181.39802,67.938494 1.10156,-0.167969 c 0.0469,0.213543 0.14193,0.375652 0.28516,0.486328 0.14323,0.110678 0.34375,0.166017 0.60156,0.166016 0.28385,10e-7 0.49739,-0.05208 0.64063,-0.15625 0.0964,-0.07292 0.14452,-0.170572 0.14453,-0.292969 -1e-5,-0.08333 -0.026,-0.152342 -0.0781,-0.207031 -0.0547,-0.05208 -0.17708,-0.100259 -0.36719,-0.144531 -0.88541,-0.195311 -1.44661,-0.373696 -1.68359,-0.535156 -0.32812,-0.223957 -0.49219,-0.535154 -0.49219,-0.933594 0,-0.359372 0.14193,-0.661455 0.42578,-0.90625 0.28386,-0.244788 0.72396,-0.367183 1.32032,-0.367188 0.5677,5e-6 0.98958,0.09245 1.26562,0.277344 0.27604,0.1849 0.46614,0.458337 0.57031,0.820313 l -1.03515,0.191406 c -0.0443,-0.161455 -0.12826,-0.285153 -0.25195,-0.371094 -0.1237,-0.08593 -0.30014,-0.128903 -0.5293,-0.128906 -0.28907,3e-6 -0.4961,0.04037 -0.6211,0.121094 -0.0833,0.05729 -0.125,0.131513 -0.125,0.222656 0,0.07813 0.0365,0.144534 0.10938,0.199219 0.099,0.07292 0.44075,0.175784 1.02539,0.308593 0.58463,0.132815 0.99284,0.295576 1.22461,0.488282 0.22916,0.195314 0.34375,0.467449 0.34375,0.816406 0,0.380209 -0.15886,0.707032 -0.47656,0.980469 -0.31771,0.273437 -0.78777,0.410156 -1.41016,0.410156 -0.5651,0 -1.01237,-0.114583 -1.3418,-0.34375 -0.32942,-0.229166 -0.54492,-0.540364 -0.64648,-0.933594 z"
             style="font-size:8px;fill:#ccc;fill-rule:evenodd"
             id="path4498"
             inkscape:connector-curvature="0" />
          <path
             d="m 186.15583,64.97365 1.01172,0 0,0.566407 c 0.36198,-0.440101 0.79297,-0.660152 1.29297,-0.660157 0.26562,5e-6 0.49609,0.05469 0.69141,0.164063 0.1953,0.109379 0.35546,0.274743 0.48046,0.496094 0.18229,-0.221351 0.37891,-0.386715 0.58985,-0.496094 0.21093,-0.109371 0.43619,-0.164058 0.67578,-0.164063 0.30468,5e-6 0.56249,0.06185 0.77344,0.185547 0.21093,0.123702 0.36848,0.305342 0.47265,0.544922 0.0755,0.177087 0.11328,0.463545 0.11328,0.859375 l 0,2.652344 -1.09765,0 0,-2.371094 c -1e-5,-0.411455 -0.0378,-0.67708 -0.11328,-0.796875 -0.10157,-0.156247 -0.25782,-0.234372 -0.46875,-0.234375 -0.15365,3e-6 -0.29818,0.04688 -0.4336,0.140625 -0.13542,0.09375 -0.23307,0.231123 -0.29297,0.412109 -0.0599,0.180993 -0.0898,0.4668 -0.0898,0.857422 l 0,1.992188 -1.09766,0 0,-2.273438 c 0,-0.403643 -0.0195,-0.664059 -0.0586,-0.78125 -0.0391,-0.117184 -0.0996,-0.204424 -0.18164,-0.261718 -0.082,-0.05729 -0.19336,-0.08594 -0.33398,-0.08594 -0.16928,3e-6 -0.32162,0.04558 -0.45704,0.136719 -0.13541,0.09115 -0.23242,0.222659 -0.29101,0.394531 -0.0586,0.171878 -0.0879,0.457034 -0.0879,0.855469 l 0,2.015625 -1.09766,0 z"
             style="font-size:8px;fill:#ccc;fill-rule:evenodd"
             id="path4500"
             inkscape:connector-curvature="0" />
          <path
             d="m 194.69512,62.123597 c 0.33346,4e-6 0.65339,0.08337 0.95978,0.250101 0.30638,0.166737 0.54717,0.405836 0.72237,0.717295 0.17519,0.311465 0.26279,0.637316 0.2628,0.977553 -1e-5,0.338548 -0.0859,0.661436 -0.25772,0.968666 -0.17182,0.307231 -0.41134,0.546753 -0.71857,0.718565 -0.30723,0.171812 -0.63012,0.257718 -0.96866,0.257718 -0.33855,0 -0.66144,-0.08591 -0.96867,-0.257718 -0.30723,-0.171812 -0.54675,-0.411334 -0.71856,-0.718565 -0.17182,-0.30723 -0.25772,-0.630118 -0.25772,-0.968666 0,-0.340237 0.0876,-0.666088 0.26279,-0.977553 0.1752,-0.311459 0.41599,-0.550558 0.72238,-0.717295 0.30638,-0.16673 0.62631,-0.250097 0.95978,-0.250101 z m 0.003,0.380865 c -0.26746,3e-6 -0.52391,0.06687 -0.76935,0.200588 -0.24545,0.133729 -0.43884,0.325854 -0.58018,0.576376 -0.14135,0.250526 -0.21202,0.5129 -0.21202,0.78712 0,0.272531 0.069,0.532366 0.20694,0.779503 0.13795,0.24714 0.3305,0.440111 0.57764,0.578915 0.24714,0.138804 0.50613,0.208206 0.77697,0.208206 0.27252,0 0.53194,-0.0694 0.77823,-0.208206 0.24629,-0.138804 0.43884,-0.331775 0.57764,-0.578915 0.13881,-0.247137 0.20821,-0.506972 0.20821,-0.779503 0,-0.27422 -0.0707,-0.536594 -0.21201,-0.78712 -0.14135,-0.250522 -0.33517,-0.442647 -0.58146,-0.576376 -0.24629,-0.133722 -0.50316,-0.200585 -0.77061,-0.200588 z m -0.88107,2.605114 0,-2.064287 0.41895,0 c 0.39271,3e-6 0.61277,0.0017 0.66017,0.0051 0.1388,0.01185 0.24671,0.03936 0.32373,0.08252 0.077,0.04317 0.14134,0.109184 0.19297,0.19805 0.0516,0.08887 0.0774,0.187472 0.0774,0.295805 -1e-5,0.148963 -0.0487,0.27634 -0.146,0.382134 -0.0973,0.105798 -0.23403,0.171391 -0.41007,0.19678 0.0626,0.0237 0.11087,0.04951 0.14473,0.07744 0.0339,0.02793 0.0804,0.08083 0.13965,0.158693 0.0152,0.02031 0.066,0.104105 0.15235,0.251371 l 0.24375,0.416412 -0.51798,0 -0.17265,-0.335161 c -0.1168,-0.225132 -0.21329,-0.366898 -0.28946,-0.425299 -0.0762,-0.0584 -0.17266,-0.0876 -0.28946,-0.0876 l -0.10918,0 0,0.848058 z m 0.41895,-1.173063 0.17012,0 c 0.24206,2e-6 0.39229,-0.0093 0.45069,-0.02793 0.0584,-0.01862 0.10452,-0.0512 0.13838,-0.09775 0.0339,-0.04655 0.0508,-0.09945 0.0508,-0.158694 0,-0.05755 -0.0165,-0.108756 -0.0495,-0.153616 -0.033,-0.04485 -0.08,-0.07702 -0.14092,-0.09648 -0.0609,-0.01946 -0.21075,-0.0292 -0.44942,-0.0292 l -0.17012,0 z"
             style="font-size:65.00091553%;baseline-shift:super;fill:#ccc;fill-rule:evenodd"
             id="path4502"
             inkscape:connector-curvature="0" />
        </g>
        <g
           id="flowRoot4654"
           style="font-size:10px;font-style:normal;font-variant:normal;font-weight:bold;font-stretch:normal;text-align:center;line-height:125%;letter-spacing:0px;word-spacing:0px;writing-mode:lr-tb;text-anchor:middle;fill:#ccc;fill-opacity:1;fill-rule:evenodd;stroke:none;font-family:Arial;-inkscape-font-specification:Arial Bold"
           transform="translate(-16.322833,907.86552)">
          <path
             inkscape:connector-curvature="0"
             id="path4809"
             style="fill:#ccc;fill-rule:evenodd"
             d="m 110.88965,5.2072973 c 0.64127,7.3e-6 1.2565,0.1603261 1.8457,0.480957 0.58919,0.3206445 1.05224,0.7804422 1.38916,1.3793945 0.33691,0.5989632 0.50537,1.2255902 0.50537,1.8798828 0,0.6510446 -0.16521,1.2719754 -0.4956,1.8627934 -0.33041,0.590821 -0.79102,1.051433 -1.38184,1.381836 -0.59082,0.330403 -1.21175,0.495605 -1.86279,0.495605 -0.65105,0 -1.27198,-0.165202 -1.86279,-0.495605 -0.59083,-0.330403 -1.05144,-0.791015 -1.38184,-1.381836 -0.3304,-0.590818 -0.49561,-1.2117488 -0.49561,-1.8627934 0,-0.6542926 0.16846,-1.2809196 0.50538,-1.8798828 0.33691,-0.5989523 0.79996,-1.05875 1.38916,-1.3793945 0.58919,-0.3206309 1.20442,-0.4809497 1.8457,-0.480957 z m 0.005,0.7324218 c -0.51432,6.6e-6 -1.00749,0.1285872 -1.47949,0.3857422 -0.47201,0.2571674 -0.84392,0.6266332 -1.11572,1.1083985 -0.27181,0.4817754 -0.40772,0.9863322 -0.40772,1.5136718 0,0.5240916 0.13265,1.0237656 0.39795,1.4990234 0.2653,0.475262 0.63558,0.846355 1.11084,1.113281 0.47526,0.266928 0.9733,0.400392 1.49414,0.400391 0.52409,1e-6 1.02295,-0.133463 1.49658,-0.400391 0.47363,-0.266926 0.84391,-0.638019 1.11084,-1.113281 0.26692,-0.4752578 0.40039,-0.9749318 0.40039,-1.4990234 0,-0.5273396 -0.13591,-1.0318964 -0.40771,-1.5136718 -0.27182,-0.4817653 -0.64454,-0.8512311 -1.11817,-1.1083985 -0.47363,-0.257155 -0.96761,-0.3857356 -1.48193,-0.3857422 z m -1.69433,5.0097659 0,-3.9697268 0.80566,0 c 0.7552,5.5e-6 1.17838,0.00326 1.26953,0.00977 0.26692,0.022792 0.47444,0.075689 0.62256,0.1586914 0.14811,0.083013 0.2718,0.2099661 0.37109,0.3808594 0.0993,0.1709033 0.14892,0.360519 0.14893,0.5688477 -1e-5,0.2864624 -0.0936,0.5314166 -0.28076,0.7348632 -0.18718,0.203454 -0.45004,0.3295932 -0.78858,0.378418 0.12044,0.045576 0.21321,0.095218 0.27832,0.1489258 0.0651,0.053714 0.15462,0.1554392 0.26856,0.3051758 0.0293,0.039065 0.12695,0.2001979 0.29297,0.4833985 l 0.46875,0.800781 -0.9961,0 -0.33203,-0.644531 c -0.22461,-0.4329402 -0.41016,-0.7055636 -0.55664,-0.8178712 -0.14649,-0.1123015 -0.33203,-0.1684538 -0.55664,-0.168457 l -0.20996,0 0,1.6308592 z m 0.80566,-2.2558596 0.32715,0 c 0.46549,3.8e-6 0.75439,-0.0179 0.8667,-0.053711 0.1123,-0.035803 0.201,-0.098466 0.26611,-0.1879883 0.0651,-0.089514 0.0977,-0.1912393 0.0977,-0.3051758 -1e-5,-0.1106726 -0.0318,-0.2091426 -0.0952,-0.2954102 -0.0635,-0.086258 -0.15381,-0.1481071 -0.27099,-0.1855468 -0.1172,-0.03743 -0.40528,-0.056147 -0.86426,-0.056152 l -0.32715,0 z" />
        </g>
        <path
           style="color:black;fill:#1a334b;fill-opacity:1;stroke:none;stroke-width:1px;marker:none;visibility:visible;display:inline;overflow:visible;enable-background:accumulate"
           d="m 1.0770263,975.09897 5.9911135,0 2.1488658,5.65483 7.7665414,9.18917 10.015216,7.06856 11.193476,4.47657 8.294323,1.3295 10.050365,0.1786 6.476901,-0.3573 8.040293,-2.1438 7.370267,-3.61338 4.686556,-3.18326 4.616927,-4.1493 3.119555,-3.50029 2.529999,-3.75161 1.969832,-3.1913 2.18885,-5.03337 119.113043,0.20824 -0.0908,30.50307 -215.4258763,-0.034 z"
           id="path5608"
           inkscape:connector-curvature="0"
           sodipodi:nodetypes="ccccccccccccccccccccc" />
      </g>
    </pattern>
  </defs>
  <sodipodi:namedview
     id="base"
     pagecolor="#31485d"
     bordercolor="#666666"
     borderopacity="1.0"
     inkscape:pageopacity="1"
     inkscape:pageshadow="2"
     inkscape:zoom="7.629"
     inkscape:cx="49.006337"
     inkscape:cy="43.476108"
     inkscape:document-units="px"
     inkscape:current-layer="layer1"
     showgrid="false"
     inkscape:window-width="1920"
     inkscape:window-height="1020"
     inkscape:window-x="-4"
     inkscape:window-y="-4"
     inkscape:window-maximized="1" />
  <metadata
     id="metadata3209">
    <rdf:RDF>
      <cc:Work
         rdf:about="">
        <dc:format>image/svg+xml</dc:format>
        <dc:type
           rdf:resource="http://purl.org/dc/dcmitype/StillImage" />
        <dc:title>Metacritic Logo</dc:title>
        <dc:date>02.11.2010</dc:date>
        <dc:creator>
          <cc:Agent>
            <dc:title>CBS Interactive Inc.</dc:title>
          </cc:Agent>
        </dc:creator>
        <dc:rights>
          <cc:Agent>
            <dc:title>CBS Interactive Inc.</dc:title>
          </cc:Agent>
        </dc:rights>
        <dc:language>en-US</dc:language>
        <dc:subject>
          <rdf:Bag>
            <rdf:li>metacritic</rdf:li>
            <rdf:li>critic</rdf:li>
            <rdf:li>criticism</rdf:li>
          </rdf:Bag>
        </dc:subject>
        <dc:description>Shows the brand of metacritic</dc:description>
        <dc:contributor>
          <cc:Agent>
            <dc:title>Sandro Wittassek</dc:title>
          </cc:Agent>
        </dc:contributor>
        <dc:relation>Brand, Logo </dc:relation>
        <dc:publisher>
          <cc:Agent>
            <dc:title>CBS Interactive Inc.</dc:title>
          </cc:Agent>
        </dc:publisher>
      </cc:Work>
    </rdf:RDF>
  </metadata>
  <g
     inkscape:label="Ebene 1"
     inkscape:groupmode="layer"
     id="layer1"
     transform="translate(-8.7461743,-961.43581)">
    <path
       style="fill:none;stroke:none"
       d="m 2.2823033,961.39081 217.3543967,0 0,90.72929 -217.3543967,0 z"
       id="rect3134" />
    <g
       id="g2951">
      <path
         style="fill:#ffcc00;fill-opacity:1;fill-rule:evenodd"
         d="m 98.028426,1004.9275 c 0,24.0197 -19.986513,43.4916 -44.641125,43.4916 -24.654614,0 -44.6411267,-19.4719 -44.6411267,-43.4916 0,-24.01981 19.9865127,-43.49169 44.6411267,-43.49169 24.654612,0 44.641125,19.47188 44.641125,43.49169 z"
         id="path3140"
         inkscape:connector-curvature="0" />
      <path
         style="fill:#001b36;fill-opacity:1;fill-rule:evenodd"
         d="m 93.443939,1004.9679 c 0,21.6762 -17.933968,39.2482 -40.056638,39.2482 -22.12267,0 -40.056638,-17.572 -40.056638,-39.2482 0,-21.67608 17.933968,-39.24808 40.056638,-39.24808 22.12267,0 40.056638,17.572 40.056638,39.24808 z"
         id="path3142"
         inkscape:connector-curvature="0" />
      <g
         transform="matrix(1.2756629,-1.3487733,1.3685717,1.2634987,-267.04706,1066.0743)"
         style="font-size:40px;font-style:normal;font-variant:normal;font-weight:normal;font-stretch:normal;text-align:center;line-height:125%;letter-spacing:0px;word-spacing:0px;writing-mode:lr-tb;text-anchor:middle;fill:#ffffff;fill-opacity:1;fill-rule:evenodd;stroke:none;display:inline;font-family:Coalition;-inkscape-font-specification:Coalition"
         id="g3144">
        <path
           d="m 126.73438,92.087002 5.05859,0 0,2.832031 c 1.80989,-2.200501 3.96483,-3.30076 6.46484,-3.300781 1.32811,2.1e-5 2.48045,0.273458 3.45703,0.820312 0.97655,0.546895 1.77733,1.373717 2.40235,2.480469 0.91144,-1.106752 1.89451,-1.933574 2.94922,-2.480469 1.05466,-0.546854 2.18096,-0.820291 3.3789,-0.820312 1.52341,2.1e-5 2.81247,0.309265 3.86719,0.927734 1.05466,0.618509 1.84242,1.526711 2.36328,2.724609 0.37757,0.885434 0.56637,2.317724 0.56641,4.296875 l 0,13.26172 -5.48828,0 0,-11.85547 c -3e-5,-2.057277 -0.18883,-3.385401 -0.56641,-3.984375 -0.50784,-0.781233 -1.28909,-1.171858 -2.34375,-1.171875 -0.76825,1.7e-5 -1.49091,0.234392 -2.16797,0.703125 -0.6771,0.468766 -1.16538,1.155614 -1.46484,2.060547 -0.2995,0.904961 -0.44924,2.333998 -0.44922,4.287108 l 0,9.96094 -5.48828,0 0,-11.36719 c -2e-5,-2.018214 -0.0977,-3.320296 -0.29297,-3.906248 -0.19533,-0.585922 -0.49806,-1.02212 -0.9082,-1.308594 -0.41017,-0.286442 -0.96681,-0.429671 -1.66993,-0.429688 -0.84636,1.7e-5 -1.60808,0.227882 -2.28515,0.683594 -0.6771,0.455745 -1.16212,1.113297 -1.45508,1.972656 -0.29298,0.859389 -0.43946,2.28517 -0.43945,4.27734 l 0,10.07813 -5.48828,0 z"
           style="font-weight:bold;fill:#ffffff;fill-rule:evenodd;font-family:Arial;-inkscape-font-specification:Arial Bold"
           id="path3146"
           inkscape:connector-curvature="0" />
      </g>
    </g>
  </g>
</svg>
